HIERARCHY
ROOT hip
{
  OFFSET 0 0 0
  CHANNELS 6 Xposition Yposition Zposition Zrotation Yrotation Xrotation
  JOINT abdomen
  {
    OFFSET 0 20.6881 -0.73152
    CHANNELS 3 Zrotation Xrotation Yrotation
    JOINT chest
    {
      OFFSET 0 11.7043 -0.48768
      CHANNELS 3 Zrotation Xrotation Yrotation
      JOINT neck
      {
        OFFSET 0 22.1894 -2.19456
        CHANNELS 3 Zrotation Xrotation Yrotation
        JOINT head
        {
          OFFSET -0.24384 7.07133 1.2192
          CHANNELS 3 Zrotation Xrotation Yrotation
          JOINT leftEye
          {
            OFFSET 4.14528 8.04674 8.04672
            CHANNELS 3 Zrotation Xrotation Yrotation
            End Site
            {
              OFFSET 1 0 0
            }
          }
          JOINT rightEye
          {
            OFFSET -3.6576 8.04674 8.04672
            CHANNELS 3 Zrotation Xrotation Yrotation
            End Site
            {
              OFFSET 1 0 0
            }
          }
        }
      }
      JOINT rCollar
      {
        OFFSET -2.68224 19.2634 -4.8768
        CHANNELS 3 Zrotation Xrotation Yrotation
        JOINT rShldr
        {
          OFFSET -8.77824 -1.95073 1.46304
          CHANNELS 3 Zrotation Xrotation Yrotation
          JOINT rForeArm
          {
            OFFSET -28.1742 -1.7115 0.48768
            CHANNELS 3 Zrotation Xrotation Yrotation
            JOINT rHand
            {
              OFFSET -22.5879 0.773209 7.07136
              CHANNELS 3 Zrotation Xrotation Yrotation
              JOINT rThumb1
              {
                OFFSET -1.2192 -0.487915 3.41376
                CHANNELS 3 Zrotation Xrotation Yrotation
                JOINT rThumb2
                {
                  OFFSET -3.37035 -0.52449 3.41376
                  CHANNELS 3 Zrotation Xrotation Yrotation
                  End Site
                  {
                    OFFSET -1.78271 -1.18214 1.43049
                  }
                }
              }
              JOINT rIndex1
              {
                OFFSET -7.75947 0.938293 5.60832
                CHANNELS 3 Zrotation Xrotation Yrotation
                JOINT rIndex2
                {
                  OFFSET -2.54057 -0.884171 1.56538
                  CHANNELS 3 Zrotation Xrotation Yrotation
                  End Site
                  {
                    OFFSET -1.62519 -0.234802 1.16502
                  }
                }
              }
              JOINT rMid1
              {
                OFFSET -8.24714 1.18213 3.41376
                CHANNELS 3 Zrotation Xrotation Yrotation
                JOINT rMid2
                {
                  OFFSET -3.10165 -0.590103 1.0647
                  CHANNELS 3 Zrotation Xrotation Yrotation
                  End Site
                  {
                    OFFSET -2.48547 -0.328903 0.83742
                  }
                }
              }
              JOINT rRing1
              {
                OFFSET -8.82822 0.546677 1.51678
                CHANNELS 3 Zrotation Xrotation Yrotation
                JOINT rRing2
                {
                  OFFSET -2.60934 -0.819778 -0.0198488
                  CHANNELS 3 Zrotation Xrotation Yrotation
                  End Site
                  {
                    OFFSET -2.33842 -0.294052 0.168128
                  }
                }
              }
              JOINT rPinky1
              {
                OFFSET -8.27202 -0.0477905 -0.4584
                CHANNELS 3 Zrotation Xrotation Yrotation
                JOINT rPinky2
                {
                  OFFSET -1.82734 -0.647385 -0.700984
                  CHANNELS 3 Zrotation Xrotation Yrotation
                  End Site
                  {
                    OFFSET -1.69225 -0.51767 -0.607171
                  }
                }
              }
            }
          }
        }
      }
      JOINT lCollar
      {
        OFFSET 2.68224 19.2634 -4.8768
        CHANNELS 3 Zrotation Xrotation Yrotation
        JOINT lShldr
        {
          OFFSET 8.77824 -1.95073 1.46304
          CHANNELS 3 Zrotation Xrotation Yrotation
          JOINT lForeArm
          {
            OFFSET 28.1742 -1.7115 0.48768
            CHANNELS 3 Zrotation Xrotation Yrotation
            JOINT lHand
            {
              OFFSET 22.5879 0.773209 7.07136
              CHANNELS 3 Zrotation Xrotation Yrotation
              JOINT lThumb1
              {
                OFFSET 1.2192 -0.487915 3.41376
                CHANNELS 3 Zrotation Xrotation Yrotation
                JOINT lThumb2
                {
                  OFFSET 3.37035 -0.52449 3.41376
                  CHANNELS 3 Zrotation Xrotation Yrotation
                  End Site
                  {
                    OFFSET 1.78271 -1.18214 1.43049
                  }
                }
              }
              JOINT lIndex1
              {
                OFFSET 7.75947 0.938293 5.60832
                CHANNELS 3 Zrotation Xrotation Yrotation
                JOINT lIndex2
                {
                  OFFSET 2.54057 -0.884171 1.56538
                  CHANNELS 3 Zrotation Xrotation Yrotation
                  End Site
                  {
                    OFFSET 1.62519 -0.234802 1.16502
                  }
                }
              }
              JOINT lMid1
              {
                OFFSET 8.24714 1.18213 3.41376
                CHANNELS 3 Zrotation Xrotation Yrotation
                JOINT lMid2
                {
                  OFFSET 3.10165 -0.590103 1.0647
                  CHANNELS 3 Zrotation Xrotation Yrotation
                  End Site
                  {
                    OFFSET 2.48547 -0.328903 0.83742
                  }
                }
              }
              JOINT lRing1
              {
                OFFSET 8.82822 0.546677 1.51678
                CHANNELS 3 Zrotation Xrotation Yrotation
                JOINT lRing2
                {
                  OFFSET 2.60934 -0.819778 -0.0198488
                  CHANNELS 3 Zrotation Xrotation Yrotation
                  End Site
                  {
                    OFFSET 2.33842 -0.294052 0.168128
                  }
                }
              }
              JOINT lPinky1
              {
                OFFSET 8.27202 -0.0477905 -0.4584
                CHANNELS 3 Zrotation Xrotation Yrotation
                JOINT lPinky2
                {
                  OFFSET 1.82734 -0.647385 -0.700984
                  CHANNELS 3 Zrotation Xrotation Yrotation
                  End Site
                  {
                    OFFSET 1.69225 -0.51767 -0.607171
                  }
                }
              }
            }
          }
        }
      }
    }
  }
  JOINT rButtock
  {
    OFFSET -8.77824 4.35084 1.2192
    CHANNELS 3 Zrotation Xrotation Yrotation
    JOINT rThigh
    {
      OFFSET 0 -1.70687 -2.19456
      CHANNELS 3 Zrotation Xrotation Yrotation
      JOINT rShin
      {
        OFFSET 0 -36.8199 0.73152
        CHANNELS 3 Zrotation Xrotation Yrotation
        JOINT rFoot
        {
          OFFSET 0.73152 -45.1104 -5.12064
          CHANNELS 3 Zrotation Xrotation Yrotation
          End Site
          {
            OFFSET -1.1221 -3.69964 12.103
          }
        }
      }
    }
  }
  JOINT lButtock
  {
    OFFSET 8.77824 4.35084 1.2192
    CHANNELS 3 Zrotation Xrotation Yrotation
    JOINT lThigh
    {
      OFFSET 0 -1.70687 -2.19456
      CHANNELS 3 Zrotation Xrotation Yrotation
      JOINT lShin
      {
        OFFSET 0 -36.8199 0.73152
        CHANNELS 3 Zrotation Xrotation Yrotation
        JOINT lFoot
        {
          OFFSET -0.73152 -45.1104 -5.12064
          CHANNELS 3 Zrotation Xrotation Yrotation
          End Site
          {
            OFFSET 1.1221 -3.69964 12.103
          }
        }
      }
    }
  }
}
MOTION
Frames:	4
Frame Time:	0.00833333
240.701 84.7658 43.4663 0.0 0.0 0.0 -0.385197 -0.00168813 -0.0109959 -0.106234 -0.00256712 -0.0184049 3.52497e-15 -7.95139e-16 3.72721e-17 1.04579e-14 3.18055e-15 7.76503e-17 -0.0 0.0 0.0 -0.0 0.0 0.0 1.83751e-15 2.32951e-18 1.98785e-16 3.85504e-14 -1.98785e-16 1.19271e-15 6.36409e-13 -1.91628e-13 -2.22639e-14 7.28542e-12 1.88423e-13 9.54166e-14 1.71855e-11 -7.28149e-15 1.7175e-13 2.96758e-11 -1.27222e-14 2.8943e-13 1.71905e-11 -3.97569e-15 1.55847e-13 7.73091 5.47488 0.417314 1.71862e-11 -6.95746e-15 1.68569e-13 2.90554 0.965183 0.102902 1.71937e-11 -7.05686e-15 1.69365e-13 10.2786 0.731801 0.0259123 1.71808e-11 -5.56597e-15 1.78111e-13 2.22167 -0.733487 -0.20892 1.74073e-15 2.71776e-18 -1.49089e-16 3.4633e-14 3.04389e-16 -3.97569e-16 6.35366e-13 1.91827e-13 9.54166e-15 7.28173e-12 -1.87454e-13 7.95139e-14 1.71789e-11 3.69715e-15 1.78111e-13 2.96726e-11 6.36111e-15 3.1249e-13 1.71754e-11 6.36111e-15 2.00375e-13 -7.73091 5.47488 -0.417314 1.71799e-11 3.27995e-15 1.74931e-13 -2.90554 0.965183 -0.102902 1.71724e-11 4.17448e-15 1.76521e-13 -10.2786 0.731801 -0.0259123 1.71794e-11 4.77083e-15 1.59028e-13 -2.22167 -0.733487 0.20892 -2.03217e-16 0.0 -3.88251e-19 0.221652 -2.58356 -0.028081 -0.00748959 -0.872631 -0.0651402 -0.513113 3.45577 0.129347 2.03217e-16 0.0 3.88251e-19 -0.807773 -4.07085 0.0653912 0.00325574 1.82139 0.0244318 0.517709 2.24911 -0.10518
237.009 83.4198 36.298 -99.0168 -84.2629 108.139 1.52702 -1.98916 -0.43036 0.0927498 0.0376046 -0.197592 -1.92152 -0.850623 -1.16256 3.27515 -3.32943 -1.32972 -0.0 0.0 0.0 -0.0 0.0 0.0 2.12626e-14 -4.24218e-13 9.28348e-15 21.4007 -2.95178 1.2289 -2.92913 -1.14819 4.75438 0.00185523 0.962007 0.135134 -2.28858e-11 7.14873e-10 -7.66484e-10 -4.1951e-11 1.23596e-09 -1.32338e-09 -2.28814e-11 7.14875e-10 -7.66497e-10 7.73091 5.47488 0.417314 -2.28855e-11 7.14871e-10 -7.66481e-10 2.90554 0.965183 0.102902 -2.28776e-11 7.14873e-10 -7.66485e-10 10.2786 0.731801 0.0259123 -2.28911e-11 7.14874e-10 -7.66476e-10 2.22167 -0.733487 -0.20892 2.11917e-14 -4.24217e-13 8.9787e-15 -22.8298 1.24149 -0.384256 3.47713 -1.45637 -5.55772 -0.149139 8.58525 -1.15825 -1.2454e-10 3.32832e-10 7.74477e-10 -1.94412e-10 5.68071e-10 1.33948e-09 -1.24543e-10 3.32835e-10 7.74495e-10 -7.73091 5.47488 -0.417314 -1.24538e-10 3.32833e-10 7.74475e-10 -2.90554 0.965183 -0.102902 -1.24547e-10 3.32835e-10 7.74476e-10 -10.2786 0.731801 -0.0259123 -1.24539e-10 3.32835e-10 7.74463e-10 -2.22167 -0.733487 0.20892 -2.03217e-16 0.0 -3.88251e-19 1.67182 -5.82501 0.666368 -0.00901877 3.17159 0.00742786 -0.738833 1.57334 -4.29276 2.03217e-16 0.0 3.88251e-19 1.39883 -6.41456 -0.539206 -3.15806e-05 4.67147 -0.0292816 0.509155 -0.330752 0.202748
237.049 83.4204 36.296 -99.9564 -84.2675 109.247 3.51071 -4.07371 -0.884244 0.310893 0.0614478 -0.389195 -3.98979 -1.75193 -2.39218 6.56451 -6.83903 -2.75052 -0.0 0.0 0.0 -0.0 0.0 0.0 4.26133e-14 -8.85712e-13 1.92728e-14 44.1635 -6.15139 2.49767 -5.81322 -2.3322 9.77686 -0.00115163 1.99191 0.279935 -8.0139e-11 1.52966e-09 -1.65364e-09 -1.43671e-10 2.64462e-09 -2.8551e-09 -8.01353e-11 1.52966e-09 -1.65365e-09 7.73091 5.47488 0.417314 -8.01392e-11 1.52966e-09 -1.65364e-09 2.90554 0.965183 0.102902 -8.01307e-11 1.52966e-09 -1.65364e-09 10.2786 0.731801 0.0259123 -8.0145e-11 1.52966e-09 -1.65364e-09 2.22167 -0.733487 -0.20892 4.25687e-14 -8.85709e-13 1.9015e-14 -46.9433 2.56551 -0.769899 6.8526 -2.95357 -11.453 0.0873795 17.6359 -2.47057 -3.06545e-10 7.17522e-10 1.65372e-09 -4.85277e-10 1.225e-09 2.8607e-09 -3.06546e-10 7.17526e-10 1.65373e-09 -7.73091 5.47488 -0.417314 -3.06542e-10 7.17524e-10 1.65372e-09 -2.90554 0.965183 -0.102902 -3.06552e-10 7.17527e-10 1.65372e-09 -10.2786 0.731801 -0.0259123 -3.06543e-10 7.17526e-10 1.65371e-09 -2.22167 -0.733487 0.20892 -2.03217e-16 0.0 -3.88251e-19 3.28411 -9.25479 1.40003 -0.0218956 7.46149 0.0851203 -1.29343 -0.408135 -8.96774 2.03217e-16 0.0 3.88251e-19 3.67353 -8.89282 -1.18226 0.00233815 7.6882 -0.0866493 0.528591 -3.0571 0.511247
237.044 83.4303 36.2781 -101.916 -84.202 111.258 5.26376 -5.96281 -1.27521 0.491471 0.117943 -0.555966 -5.86812 -2.54767 -3.49076 9.3562 -9.96661 -4.04355 -0.0 0.0 0.0 -0.0 0.0 0.0 6.01128e-14 -1.27266e-12 2.74529e-14 64.5856 -8.83894 3.72612 -8.22146 -3.34982 14.2852 -0.00806244 2.88596 0.405859 -1.03028e-10 2.14463e-09 -2.2998e-09 -1.85204e-10 3.70791e-09 -3.97071e-09 -1.03025e-10 2.14463e-09 -2.2998e-09 7.73091 5.47488 0.417314 -1.03029e-10 2.14463e-09 -2.29978e-09 2.90554 0.965183 0.102902 -1.0302e-10 2.14463e-09 -2.29979e-09 10.2786 0.731801 0.0259123 -1.03035e-10 2.14463e-09 -2.29978e-09 2.22167 -0.733487 -0.20892 6.00937e-14 -1.27266e-12 2.72343e-14 -68.4394 3.72381 -1.15494 9.59515 -4.20496 -16.7141 0.69039 25.7112 -3.81389 -4.07978e-10 9.9849e-10 2.32308e-09 -6.4258e-10 1.7042e-09 4.01783e-09 -4.07979e-10 9.98494e-10 2.32308e-09 -7.73091 5.47488 -0.417314 -4.07975e-10 9.98492e-10 2.32308e-09 -2.90554 0.965183 -0.102902 -4.07986e-10 9.98496e-10 2.32308e-09 -10.2786 0.731801 -0.0259123 -4.07976e-10 9.98494e-10 2.32307e-09 -2.22167 -0.733487 0.20892 -2.03217e-16 0.0 -3.88251e-19 4.81282 -12.3011 2.09296 -0.0431932 11.26 0.155508 -2.05523 -2.12129 -13.1408 2.03217e-16 0.0 3.88251e-19 5.66104 -11.0977 -1.77107 0.00964918 10.3716 -0.138657 0.575456 -5.48993 0.822202
